<?xml version="1.0" encoding="UTF-8" standalone="no"?><svg xmlns="http://www.w3.org/2000/svg" xmlns:xlink="http://www.w3.org/1999/xlink" contentStyleType="text/css" height="646px" preserveAspectRatio="none" style="width:1005px;height:646px;background:#FFFFFF;" version="1.1" viewBox="0 0 1005 646" width="1005px" zoomAndPan="magnify"><defs/><g><line style="stroke:#000000;stroke-width:1.5;" x1="76.5" x2="76.5" y1="77.9375" y2="97.9375"/><rect fill="#87CEEB" height="47.9375" style="stroke:#000000;stroke-width:1.5;" width="133" x="10" y="97.9375"/><path d="M21,110.9063 L21,112.9063 L29,112.9063 L29,111.9063 L24,111.9063 L24,110.9063 L21,110.9063 M21,113.9063 L21,118.4063 C21,118.6863 21.22,118.9063 21.5,118.9063 L28.5,118.9063 C28.78,118.9063 29,118.6863 29,118.4063 L29,113.9063 L21,113.9063 " fill="#000000" style="stroke:;stroke-width:0.0;stroke-dasharray:;"/><text fill="#000000" font-family="sans-serif" font-size="12" lengthAdjust="spacing" textLength="99" x="34" y="119.0762">shared-services</text><text fill="#000000" font-family="sans-serif" font-size="12" font-style="italic" lengthAdjust="spacing" textLength="34" x="20" y="133.0449">folder</text><line style="stroke:#000000;stroke-width:1.5;" x1="76.5" x2="86.5" y1="184.8438" y2="184.8438"/><rect fill="#87CEEB" height="47.9375" style="stroke:#000000;stroke-width:1.5;" width="170" x="86.5" y="160.875"/><path d="M97.5,173.8438 L97.5,180.8438 L98.5,180.8438 L98.5,173.8438 L97.5,173.8438 M104.5,173.8438 L104.5,180.8438 L105.5,180.8438 L105.5,173.8438 L104.5,173.8438 M99.5,174.8438 L99.5,175.8438 L101.5,175.8438 L101.5,174.8438 L99.5,174.8438 M100.5,176.8438 L100.5,177.8438 L102.5,177.8438 L102.5,176.8438 L100.5,176.8438 M101.5,178.8438 L101.5,179.8438 L103.5,179.8438 L103.5,178.8438 L101.5,178.8438 " fill="#000000" style="stroke:;stroke-width:0.0;stroke-dasharray:;"/><text fill="#000000" font-family="sans-serif" font-size="12" lengthAdjust="spacing" textLength="136" x="110.5" y="182.0137">prd-ss-central-logging</text><text fill="#000000" font-family="sans-serif" font-size="12" font-style="italic" lengthAdjust="spacing" textLength="41" x="96.5" y="195.9824">Project</text><line style="stroke:#000000;stroke-width:1.5;" x1="171.5" x2="181.5" y1="254.7656" y2="254.7656"/><rect fill="#F1F1F1" height="61.9063" style="stroke:#000000;stroke-width:1.5;" width="215" x="181.5" y="223.8125"/><path d="M192.5,236.7813 L192.5,244.7813 L194.5,242.7813 L196.5,244.7813 L196.5,236.7813 L192.5,236.7813 " fill="#000000" style="stroke:;stroke-width:0.0;stroke-dasharray:;"/><text fill="#000000" font-family="sans-serif" font-size="12" lengthAdjust="spacing" textLength="121" x="205.5" y="244.9512">org-audit-logs-topic</text><text fill="#000000" font-family="sans-serif" font-size="12" font-style="italic" lengthAdjust="spacing" text-decoration="underline" textLength="195" x="191.5" y="258.9199">IAM role for sink service account</text><text fill="#000000" font-family="sans-serif" font-size="12" font-style="italic" lengthAdjust="spacing" textLength="87" x="191.5" y="272.8887">Pub/Sub Topic</text><line style="stroke:#000000;stroke-width:1.5;" x1="289" x2="299" y1="324.6875" y2="324.6875"/><rect fill="#F1F1F1" height="47.9375" style="stroke:#000000;stroke-width:1.5;" width="151" x="299" y="300.7188"/><path d="M311,313.6875 C310.93,313.6875 310.87,313.6975 310.81,313.7175 C310.42,313.7975 310.11,314.1075 310.03,314.4975 C310,314.5575 310,314.6175 310,314.6875 L310,320.1875 C310,321.0175 310.67,321.6875 311.5,321.6875 L317,321.6875 L317,320.6875 L311.5,320.6875 C311.22,320.6875 311,320.4675 311,320.1875 C311,319.9075 311.22,319.6875 311.5,319.6875 L317,319.6875 L317,314.1875 C317,313.9075 316.78,313.6875 316.5,313.6875 L316,313.6875 L316,316.6875 L315,315.6875 L314,316.6875 L314,313.6875 L311,313.6875 " fill="#000000" style="stroke:;stroke-width:0.0;stroke-dasharray:;"/><text fill="#000000" font-family="sans-serif" font-size="12" lengthAdjust="spacing" textLength="113" x="323" y="321.8574">org-audit-logs-sub</text><text fill="#000000" font-family="sans-serif" font-size="12" font-style="italic" lengthAdjust="spacing" textLength="131" x="309" y="335.8262">Pub/Sub Subscription</text><line style="stroke:#000000;stroke-width:1.5;" x1="374.5" x2="384.5" y1="387.625" y2="387.625"/><rect fill="#F1F1F1" height="47.9375" style="stroke:#000000;stroke-width:1.5;" width="397" x="384.5" y="363.6563"/><text fill="#000000" font-family="sans-serif" font-size="12" lengthAdjust="spacing" textLength="377" x="394.5" y="384.7949">cribl-stream@prd-ss-central-logging.iam.gserviceaccount.com</text><text fill="#000000" font-family="sans-serif" font-size="12" font-style="italic" lengthAdjust="spacing" textLength="202" x="394.5" y="398.7637">Service account with access keys</text><line style="stroke:#000000;stroke-width:1.5;" x1="583" x2="593" y1="450.5625" y2="450.5625"/><rect fill="#90EE90" height="47.9375" style="stroke:#000000;stroke-width:1.5;" width="149" x="593" y="426.5938"/><text fill="#000000" font-family="sans-serif" font-size="12" lengthAdjust="spacing" textLength="74" x="603" y="447.7324">Cribl Stream</text><text fill="#000000" font-family="sans-serif" font-size="12" font-style="italic" lengthAdjust="spacing" textLength="129" x="603" y="461.7012">Observability pipeline</text><line style="stroke:#000000;stroke-width:1.5;" x1="667.5" x2="677.5" y1="513.5" y2="513.5"/><rect fill="#90EE90" height="47.9375" style="stroke:#000000;stroke-width:1.5;" width="105" x="677.5" y="489.5313"/><text fill="#000000" font-family="sans-serif" font-size="12" lengthAdjust="spacing" textLength="40" x="687.5" y="510.6699">Splunk</text><text fill="#000000" font-family="sans-serif" font-size="12" font-style="italic" lengthAdjust="spacing" textLength="85" x="687.5" y="524.6387">Data analytics</text><line style="stroke:#000000;stroke-width:1.5;" x1="667.5" x2="667.5" y1="474.5313" y2="513.5"/><line style="stroke:#000000;stroke-width:1.5;" x1="583" x2="583" y1="411.5938" y2="450.5625"/><line style="stroke:#000000;stroke-width:1.5;" x1="374.5" x2="374.5" y1="348.6563" y2="387.625"/><line style="stroke:#000000;stroke-width:1.5;" x1="289" x2="289" y1="285.7188" y2="324.6875"/><line style="stroke:#000000;stroke-width:1.5;" x1="171.5" x2="171.5" y1="208.8125" y2="254.7656"/><line style="stroke:#000000;stroke-width:1.5;" x1="76.5" x2="76.5" y1="145.875" y2="184.8438"/><line style="stroke:#000000;stroke-width:1.5;" x1="898.5" x2="898.5" y1="77.9375" y2="97.9375"/><rect fill="#F1F1F1" height="61.9063" style="stroke:#000000;stroke-width:1.5;" width="192" x="802.5" y="97.9375"/><path d="M817.5,110.9063 C816.81,110.9063 816.16,111.0963 815.59,111.4063 L818.81,113.7463 L819.56,111.4963 C818.96,111.1363 818.25,110.9063 817.5,110.9063 M814.75,112.0363 C813.99,112.7663 813.5,113.7763 813.5,114.9163 C813.5,115.1663 813.52,115.3963 813.56,115.6363 L816.65,113.4163 L814.74,112.0363 M820.38,112.1663 L819.16,115.9163 L821.35,115.9163 C821.43,115.5963 821.51,115.2663 821.51,114.9163 C821.51,113.8463 821.07,112.8863 820.38,112.1663 M815.66,115.3863 L813.91,116.6363 C814.46,117.7663 815.51,118.6263 816.79,118.8563 L815.66,115.3863 M817.22,116.9163 L817.85,118.8863 C819.18,118.7663 820.31,118.0063 820.94,116.9163 L817.22,116.9163 " fill="#000000" style="stroke:;stroke-width:0.0;stroke-dasharray:;"/><text fill="#000000" font-family="sans-serif" font-size="12" lengthAdjust="spacing" textLength="115" x="826.5" y="119.0762">org-audit-logs-sink</text><text fill="#000000" font-family="sans-serif" font-size="12" font-style="italic" lengthAdjust="spacing" text-decoration="underline" textLength="125" x="812.5" y="133.0449">Sink service account</text><text fill="#000000" font-family="sans-serif" font-size="12" font-style="italic" lengthAdjust="spacing" textLength="172" x="812.5" y="147.0137">Logs router sink &lt;org level&gt;</text><line style="stroke:#000000;stroke-width:1.5;" x1="76.5" x2="898.5" y1="77.9375" y2="77.9375"/><rect fill="#87CEEB" height="47.9375" style="stroke:#000000;stroke-width:1.5;" width="94" x="440.5" y="10"/><path d="M455.5,22.9688 C453.29,22.9688 451.5,24.7588 451.5,26.9688 C451.5,29.1788 453.29,30.9688 455.5,30.9688 C457.71,30.9688 459.5,29.1788 459.5,26.9688 C459.5,24.7588 457.71,22.9688 455.5,22.9688 M455.5,23.9688 C455.83,23.9688 456.14,24.0588 456.44,24.1588 C456.23,24.3588 455.99,24.5388 456.03,24.7188 C456.07,24.8988 456.72,24.8488 456.72,25.2188 C456.72,25.4888 456.3,25.5688 456.59,25.8788 C456.94,26.2287 455.95,26.8588 455.93,27.3188 C455.9,28.1488 456.77,28.2888 457.46,28.2888 C457.88,28.2888 457.99,28.4888 457.96,28.7287 C457.42,29.4988 456.5,29.9787 455.49,29.9787 C455.11,29.9787 454.76,29.8888 454.43,29.7588 C454.65,29.3188 454.15,28.4488 453.68,28.1688 C453.45,27.9388 452.96,28.0288 452.68,27.9188 C452.59,27.6488 452.5,27.3788 452.49,27.0788 C452.52,27.0288 452.57,26.9888 452.65,26.9888 C452.84,26.9888 453.1,27.3688 453.24,27.3288 C453.42,27.2888 452.5,26.0188 452.93,25.7688 C453.13,25.6488 453.53,26.1588 453.4,25.6088 C453.28,25.0988 453.76,25.3288 454.06,25.1988 C454.32,25.0888 454.51,24.7888 454.19,24.6088 C454.13,24.5788 454.06,24.5088 453.97,24.4188 C454.42,24.1488 454.94,23.9788 455.5,23.9788 M457.81,25.0588 C457.99,25.2788 458.13,25.5188 458.25,25.7788 C458.25,25.7888 458.25,25.7988 458.25,25.8088 C458.21,25.8788 458.14,25.9188 458.03,26.0288 C457.75,26.3088 457.71,25.8188 457.59,25.7188 C457.46,25.5988 456.99,25.7388 456.93,25.5888 C456.86,25.4088 457.43,25.1688 457.81,25.0588 " fill="#000000" style="stroke:;stroke-width:0.0;stroke-dasharray:;"/><text fill="#000000" font-family="sans-serif" font-size="12" lengthAdjust="spacing" textLength="52" x="464.5" y="31.1387">dnb.com</text><text fill="#000000" font-family="sans-serif" font-size="12" font-style="italic" lengthAdjust="spacing" textLength="74" x="450.5" y="45.1074">organization</text><line style="stroke:#000000;stroke-width:1.5;" x1="487.5" x2="487.5" y1="57.9375" y2="77.9375"/><rect fill="#DDDDDD" height="65.9063" style="stroke:#000000;stroke-width:1.5;" width="154" x="414.75" y="552.4688"/><rect fill="#87CEEB" height="13.9688" style="stroke:none;stroke-width:1.0;" width="134" x="424.75" y="564.4688"/><text fill="#000000" font-family="sans-serif" font-size="12" lengthAdjust="spacing" textLength="126" x="428.75" y="575.6074">GCP Project structure</text><rect fill="#FFFFCC" height="13.9688" style="stroke:none;stroke-width:1.0;" width="134" x="424.75" y="578.4375"/><text fill="#000000" font-family="sans-serif" font-size="12" lengthAdjust="spacing" textLength="91" x="428.75" y="589.5762">GCP Resources</text><rect fill="#90EE90" height="13.9688" style="stroke:none;stroke-width:1.0;" width="134" x="424.75" y="592.4063"/><text fill="#000000" font-family="sans-serif" font-size="12" lengthAdjust="spacing" textLength="104" x="428.75" y="603.5449">External services</text><line style="stroke:#000000;stroke-width:1.0;" x1="424.75" x2="558.75" y1="564.4688" y2="564.4688"/><line style="stroke:#000000;stroke-width:1.0;" x1="424.75" x2="558.75" y1="578.4375" y2="578.4375"/><line style="stroke:#000000;stroke-width:1.0;" x1="424.75" x2="558.75" y1="592.4063" y2="592.4063"/><line style="stroke:#000000;stroke-width:1.0;" x1="424.75" x2="558.75" y1="606.375" y2="606.375"/><line style="stroke:#000000;stroke-width:1.0;" x1="424.75" x2="424.75" y1="564.4688" y2="606.375"/><line style="stroke:#000000;stroke-width:1.0;" x1="558.75" x2="558.75" y1="564.4688" y2="606.375"/><!--MD5=[414b57b9128ffe56f2563e57f5a118cd]
@startwbs diagram

<style>
wbsDiagram {
    Linecolor black
  .yellowbg {
      BackgroundColor yellow
  }
  .bluebg {
      BackgroundColor SkyBlue
  }
}
</style>

*:<&globe> dnb.com
<i>organization</i>; <<bluebg>>
**:<&folder> shared-services
<i>folder</i>; <<bluebg>>
***:<&project> prd-ss-central-logging 
<i>Project</i>; <<bluebg>>
****:<&bookmark> org-audit-logs-topic
<u><i>IAM role for sink service account</i></u>
<i>Pub/Sub Topic</i>;
*****:<&book> org-audit-logs-sub
<i>Pub/Sub Subscription</i>;
******:cribl-stream@prd-ss-central-logging.iam.gserviceaccount.com
<i>Service account with access keys</i>;
*******[#LightGreen]:Cribl Stream
<i>Observability pipeline</i>;
********[#LightGreen]:Splunk
<i>Data analytics</i>;
**:<&aperture> org-audit-logs-sink
<u><i>Sink service account</i></u>
<i>Logs router sink <org level></i>;


legend
|<#SkyBlue> GCP Project structure |
|<#Business> GCP Resources |
|<#LightGreen> External services |
end legend

@endwbs

PlantUML version 1.2022.3beta2(Unknown compile time)
(GPL source distribution)
Java Runtime: Java(TM) SE Runtime Environment
JVM: Java HotSpot(TM) 64-Bit Server VM
Default Encoding: UTF-8
Language: en
Country: US
--></g></svg>